<svg xmlns="http://www.w3.org/2000/svg" width="240" height="280" viewBox="0 0 240 280"><title>Traveler portrait medallion</title><desc>Gold-framed night portrait: a starry-caped wanderer silhouette beneath a constellation, with an animated scanline.</desc><style><![CDATA[
@keyframes twinkle { 0%,100%{opacity:.15} 50%{opacity:1} }
.tw { animation: twinkle 3.4s ease-in-out infinite; }
.scan{animation:scan 5s linear infinite}
@keyframes scan{from{transform:translateY(-40px)}to{transform:translateY(280px)}}
.braid{animation:sway 5s ease-in-out infinite;transform-origin:120px 150px}
@keyframes sway{0%,100%{transform:rotate(0)}50%{transform:rotate(1.6deg)}}
]]></style>
<defs><linearGradient id="pbg" x1="0" y1="0" x2="0" y2="1"><stop offset="0" stop-color="#0a1226"/><stop offset=".7" stop-color="#131b2e"/><stop offset="1" stop-color="#1a2238"/></linearGradient>
<linearGradient id="cape" x1="0" y1="0" x2="0" y2="1"><stop offset="0" stop-color="#24406e"/><stop offset="1" stop-color="#0a1226"/></linearGradient>
<clipPath id="clip"><rect x="14" y="14" width="212" height="232"/></clipPath></defs>
<rect width="240" height="280" fill="#0e1424"/>
<rect x="8" y="8" width="224" height="264" rx="3" fill="none" stroke="#e8c877" stroke-width="2"/>
<rect x="14" y="14" width="212" height="232" fill="url(#pbg)"/>
<g clip-path="url(#clip)">
<circle class="tw" cx="154" cy="118" r="1" fill="#fff" opacity=".8" style="animation-delay:0.0s"/><circle class="tw" cx="26" cy="80" r="1.6" fill="#fff" opacity=".8" style="animation-delay:1.8s"/><circle class="tw" cx="180" cy="74" r="1" fill="#fff" opacity=".8" style="animation-delay:1.2s"/><circle class="tw" cx="37" cy="39" r="1" fill="#fff" opacity=".8" style="animation-delay:2.2s"/><circle class="tw" cx="53" cy="113" r="1.6" fill="#fff" opacity=".8" style="animation-delay:1.5s"/><circle class="tw" cx="197" cy="66" r="1" fill="#fff" opacity=".8" style="animation-delay:0.3s"/><circle class="tw" cx="88" cy="62" r="1" fill="#fff" opacity=".8" style="animation-delay:1.1s"/><circle class="tw" cx="163" cy="91" r="1" fill="#fff" opacity=".8" style="animation-delay:1.0s"/><circle class="tw" cx="67" cy="107" r="1" fill="#fff" opacity=".8" style="animation-delay:1.7s"/><circle class="tw" cx="161" cy="68" r="1" fill="#fff" opacity=".8" style="animation-delay:3.0s"/><circle class="tw" cx="31" cy="58" r="1" fill="#fff" opacity=".8" style="animation-delay:3.6s"/><circle class="tw" cx="200" cy="43" r="1" fill="#fff" opacity=".8" style="animation-delay:1.0s"/><circle class="tw" cx="219" cy="80" r="1" fill="#fff" opacity=".8" style="animation-delay:2.3s"/><circle class="tw" cx="39" cy="90" r="1" fill="#fff" opacity=".8" style="animation-delay:3.6s"/><circle class="tw" cx="165" cy="69" r="1" fill="#fff" opacity=".8" style="animation-delay:1.7s"/><circle class="tw" cx="134" cy="89" r="1" fill="#fff" opacity=".8" style="animation-delay:3.3s"/><circle class="tw" cx="182" cy="102" r="1" fill="#fff" opacity=".8" style="animation-delay:3.4s"/><circle class="tw" cx="122" cy="77" r="1" fill="#fff" opacity=".8" style="animation-delay:3.2s"/><circle class="tw" cx="176" cy="120" r="1" fill="#fff" opacity=".8" style="animation-delay:0.7s"/><circle class="tw" cx="98" cy="41" r="1" fill="#fff" opacity=".8" style="animation-delay:3.9s"/><circle class="tw" cx="47" cy="91" r="1" fill="#fff" opacity=".8" style="animation-delay:0.0s"/><circle class="tw" cx="27" cy="75" r="1" fill="#fff" opacity=".8" style="animation-delay:2.1s"/>
<path d="M20 246 20 150 Q60 96 120 92 Q180 96 220 150 L220 246Z" fill="url(#cape)" opacity=".95"/>
<path d="M60 246 Q74 160 120 150 Q166 160 180 246Z" fill="#0d1730"/>
<circle cx="120" cy="112" r="30" fill="#0d1730"/>
<g class="braid"><path d="M94 122 Q88 160 96 196" stroke="#7fd8cf" stroke-width="2.5" fill="none" opacity=".75"/><path d="M146 122 Q152 160 144 196" stroke="#7fd8cf" stroke-width="2.5" fill="none" opacity=".75"/></g>
<path d="M96 96 Q120 78 144 96 L138 106 Q120 92 102 106Z" fill="#3a2f1c"/>
<text x="120" y="118" text-anchor="middle" font-family="Georgia,serif" font-size="21" fill="#e8c877">✦</text>
<circle cx="70" cy="196" r="1.8" fill="#7fd8cf" class="tw"/><circle cx="170" cy="210" r="1.8" fill="#7fd8cf" class="tw" style="animation-delay:1.2s"/>
<rect class="scan" x="14" y="0" width="212" height="34" fill="#7fd8cf" opacity=".05"/>
</g>
<rect x="60" y="252" width="120" height="20" rx="3" fill="#101828" stroke="#e8c877" stroke-opacity=".7"/><text x="120" y="266" text-anchor="middle" font-family="ui-monospace,Consolas,monospace" font-size="11" fill="#e8c877" letter-spacing="2">TRAVELER</text>
</svg>