<svg xmlns="http://www.w3.org/2000/svg" width="1012" height="230" viewBox="0 0 1012 230"><title>Ascended talents — framework levels in the Talent Court</title><desc>Ten framed talent plaques with level bars, Teyvat palette.</desc><style><![CDATA[
@keyframes twinkle { 0%,100%{opacity:.15} 50%{opacity:1} }
.tw { animation: twinkle 3.4s ease-in-out infinite; }]]></style>
<defs><linearGradient id="tb" x1="0" y1="0" x2="0" y2="1"><stop offset="0" stop-color="#131b2e"/><stop offset="1" stop-color="#0e1424"/></linearGradient></defs>
<rect x="1" y="1" width="1010" height="228" rx="4" fill="url(#tb)" stroke="#e8c877" stroke-opacity=".45"/>
<rect x="7" y="7" width="998" height="216" rx="2" fill="none" stroke="#e8c877" stroke-opacity=".18"/>
<text x="34" y="34" font-family="ui-monospace,Consolas,monospace" font-size="10.5" fill="#8a7443" letter-spacing="2">TALENT COURT — ASCENDED constellations</text>
<line x1="34" y1="44" x2="978" y2="44" stroke="#e8c877" stroke-opacity=".3"/>
<text x="60" y="75" font-family="ui-monospace,Consolas,monospace" font-size="11" fill="#efe6d0" letter-spacing="1">LARAVEL</text>
<rect x="210" y="64" width="150" height="14" fill="#0a1226" stroke="#8a7443" stroke-opacity=".5"/>
<rect x="211" y="65" width="136" height="12" fill="#ff9a3c" opacity=".85"/>
<text x="375" y="75" font-family="ui-monospace,Consolas,monospace" font-size="11" fill="#ff9a3c">Lv.92</text>
<text x="60" y="105" font-family="ui-monospace,Consolas,monospace" font-size="11" fill="#efe6d0" letter-spacing="1">REACT</text>
<rect x="210" y="94" width="150" height="14" fill="#0a1226" stroke="#8a7443" stroke-opacity=".5"/>
<rect x="211" y="95" width="133" height="12" fill="#23d3c3" opacity=".85"/>
<text x="375" y="105" font-family="ui-monospace,Consolas,monospace" font-size="11" fill="#23d3c3">Lv.90</text>
<text x="60" y="135" font-family="ui-monospace,Consolas,monospace" font-size="11" fill="#efe6d0" letter-spacing="1">PHP</text>
<rect x="210" y="124" width="150" height="14" fill="#0a1226" stroke="#8a7443" stroke-opacity=".5"/>
<rect x="211" y="125" width="133" height="12" fill="#f7c644" opacity=".85"/>
<text x="375" y="135" font-family="ui-monospace,Consolas,monospace" font-size="11" fill="#f7c644">Lv.90</text>
<text x="60" y="165" font-family="ui-monospace,Consolas,monospace" font-size="11" fill="#efe6d0" letter-spacing="1">TYPESCRIPT</text>
<rect x="210" y="154" width="150" height="14" fill="#0a1226" stroke="#8a7443" stroke-opacity=".5"/>
<rect x="211" y="155" width="129" height="12" fill="#4cc2f2" opacity=".85"/>
<text x="375" y="165" font-family="ui-monospace,Consolas,monospace" font-size="11" fill="#4cc2f2">Lv.87</text>
<text x="60" y="195" font-family="ui-monospace,Consolas,monospace" font-size="11" fill="#efe6d0" letter-spacing="1">NEXT.JS</text>
<rect x="210" y="184" width="150" height="14" fill="#0a1226" stroke="#8a7443" stroke-opacity=".5"/>
<rect x="211" y="185" width="127" height="12" fill="#9ee7ff" opacity=".85"/>
<text x="375" y="195" font-family="ui-monospace,Consolas,monospace" font-size="11" fill="#9ee7ff">Lv.86</text>
<text x="540" y="75" font-family="ui-monospace,Consolas,monospace" font-size="11" fill="#efe6d0" letter-spacing="1">MYSQL</text>
<rect x="690" y="64" width="150" height="14" fill="#0a1226" stroke="#8a7443" stroke-opacity=".5"/>
<rect x="691" y="65" width="127" height="12" fill="#e8c877" opacity=".85"/>
<text x="855" y="75" font-family="ui-monospace,Consolas,monospace" font-size="11" fill="#e8c877">Lv.86</text>
<text x="540" y="105" font-family="ui-monospace,Consolas,monospace" font-size="11" fill="#efe6d0" letter-spacing="1">NODE.JS</text>
<rect x="690" y="94" width="150" height="14" fill="#0a1226" stroke="#8a7443" stroke-opacity=".5"/>
<rect x="691" y="95" width="126" height="12" fill="#b58ee8" opacity=".85"/>
<text x="855" y="105" font-family="ui-monospace,Consolas,monospace" font-size="11" fill="#b58ee8">Lv.85</text>
<text x="540" y="135" font-family="ui-monospace,Consolas,monospace" font-size="11" fill="#efe6d0" letter-spacing="1">PYTHON</text>
<rect x="690" y="124" width="150" height="14" fill="#0a1226" stroke="#8a7443" stroke-opacity=".5"/>
<rect x="691" y="125" width="118" height="12" fill="#84c456" opacity=".85"/>
<text x="855" y="135" font-family="ui-monospace,Consolas,monospace" font-size="11" fill="#84c456">Lv.80</text>
<text x="540" y="165" font-family="ui-monospace,Consolas,monospace" font-size="11" fill="#efe6d0" letter-spacing="1">LUA · ROBLOX</text>
<rect x="690" y="154" width="150" height="14" fill="#0a1226" stroke="#8a7443" stroke-opacity=".5"/>
<rect x="691" y="155" width="115" height="12" fill="#c45cff" opacity=".85"/>
<text x="855" y="165" font-family="ui-monospace,Consolas,monospace" font-size="11" fill="#c45cff">Lv.78</text>
<text x="540" y="195" font-family="ui-monospace,Consolas,monospace" font-size="11" fill="#efe6d0" letter-spacing="1">BLENDER · WEBGL</text>
<rect x="690" y="184" width="150" height="14" fill="#0a1226" stroke="#8a7443" stroke-opacity=".5"/>
<rect x="691" y="185" width="111" height="12" fill="#e06c9f" opacity=".85"/>
<text x="855" y="195" font-family="ui-monospace,Consolas,monospace" font-size="11" fill="#e06c9f">Lv.75</text>
<text class="tw" x="506" y="218" text-anchor="middle" font-family="Georgia,serif" font-size="11" fill="#7fd8cf" opacity=".7">✦ every point spent deliberately ✦</text>
</svg>